<svg width="248" height="300" fill="none" xmlns="http://www.w3.org/2000/svg"><g clip-path="url(#clip0)"><path d="M247.771 132.621l-60.147 2.492-38.989-2.487 64.49-6.181 34.646 6.176z" fill="#634B1E"/><path d="M212.985 129.145l34.786 3.476v-70.07l-34.786-17.395-2.67 2.884v78.124l2.67 2.981" fill="#D9A740"/><path d="M148.635 62.51l64.35-17.416v84.051l-64.35 3.481V62.51" fill="#886A2A"/><path d="M.03 132.621l60.146 2.492 38.99-2.487-64.307-6.887-34.83 6.882z" fill="#634B1E"/><path d="M34.815 129.145L.029 132.518V62.236l34.785-17.367 1.602 2.992v78.659l-1.601 2.625" fill="#886A2A"/><path d="M99.165 62.51l-64.35-17.416v84.051l64.35 3.481V62.51z" fill="#D9A740"/><path d="M247.771 168.857l-60.147-2.492-38.989 2.488 64.209 6.49 34.927-6.486z" fill="#FAD791"/><path d="M212.985 172.334l34.786-3.477v70.07l-34.786 17.395-1.827-3.978v-76.436l1.827-3.574z" fill="#D9A740"/><path d="M148.635 238.968l64.35 17.417v-84.051l-64.35-3.481v70.115" fill="#886A2A"/><path d="M.03 168.857l60.146-2.492 38.99 2.488-64.772 7.053-34.365-7.049z" fill="#FAD791"/><path d="M34.815 172.334L.029 168.857v70.07l34.785 17.395 2.11-3.136v-77.281l-2.11-3.571" fill="#886A2A"/><path d="M99.165 238.968l-64.35 17.417v-84.051l64.35-3.481v70.115" fill="#D9A740"/><path d="M92.5 103.189l31.902-5.594 63.691 9.018 5.486 3.156-30.935 3.385-70.144-9.965z" fill="#634B1E"/><path d="M155.3 103.189l-31.902-5.594-66.434 10.308-2.743 1.866 30.935 3.385 70.144-9.965z" fill="#634B1E"/><path d="M92.5 198.289l31.902 5.595L187.933 195l5.646-3.29-30.935-3.386-70.144 9.965z" fill="#FAD791"/><path d="M155.3 198.289l-31.902 5.595-66.918-9.53-2.26-2.644 30.936-3.386 70.144 9.965z" fill="#FAD791"/><path d="M193.579 109.769V75.136l-32.625-10.669V19.138L123.9.614l-1.545 2.461-.282 292.827 1.827 3.766 37.054-18.525v-44.132l32.625-10.669V191.71l-32.625 5.743v-93.428l32.625 5.744" fill="#D9A740"/><path d="M86.846 19.138v45.329l-32.625 10.67v34.632l32.625-5.744v93.428l-32.625-5.743v34.632l32.625 10.669v44.132l37.054 18.525V.614L86.846 19.138z" fill="#886A2A"/></g><defs><clipPath id="clip0"><path fill="#fff" d="M0 0h247.8v300H0z"/></clipPath></defs></svg>