<svg width="529" height="300" fill="none" xmlns="http://www.w3.org/2000/svg"><g clip-path="url(#clip0)" fill-rule="evenodd" clip-rule="evenodd"><path d="M305.366 94.727h47.343v48.397h23.937c11.056 0 22.425-1.969 32.893-5.516 5.145-1.745 10.918-4.172 15.992-7.226-6.683-8.724-10.095-19.741-11.097-30.6-1.367-14.773 1.615-34 11.611-45.561l4.977-5.756 5.93 4.768c14.93 11.994 27.487 28.757 29.7 47.865 17.978-5.288 39.086-4.037 54.932 5.108l6.501 3.751-3.421 6.68c-13.402 26.154-41.421 34.257-68.813 32.823-40.989 102.091-130.227 150.424-238.427 150.424-55.902 0-107.187-20.897-136.393-70.493l-.478-.807-4.255-8.659c-9.872-21.831-13.151-45.746-10.928-69.643l.669-7.158h40.486V94.727h47.34V47.384h94.688V.041h56.813v94.686z" fill="#364548"/><path d="M458.75 112.632c3.174-24.671-15.289-44.048-26.738-53.25-13.195 15.256-15.245 55.236 5.456 72.069-11.554 10.261-35.896 19.561-60.822 19.561H73.232c-2.423 26.02 2.145 49.981 12.578 70.489l3.451 6.315a117.19 117.19 0 007.154 10.733c12.474.801 23.975 1.077 34.497.845h.005c20.677-.456 37.549-2.899 50.336-7.33a3.646 3.646 0 012.388 6.887 98.927 98.927 0 01-5.305 1.666h-.006c-10.069 2.876-20.866 4.81-34.796 5.669.828.015-.861.124-.866.124-.474.032-1.07.1-1.546.125-5.483.308-11.4.372-17.45.372-6.617 0-13.133-.124-20.419-.497l-.186.125c25.28 28.415 64.809 45.456 114.359 45.456 104.864 0 193.811-46.485 233.199-150.846 27.943 2.867 54.799-4.259 67.014-28.107-19.458-11.228-44.481-7.648-58.889-.406" fill="#22A0C8"/><path d="M458.75 112.633c3.174-24.672-15.289-44.05-26.738-53.25-13.195 15.255-15.245 55.235 5.455 72.068-11.553 10.261-35.895 19.561-60.821 19.561H91.199c-1.238 39.848 13.549 70.096 39.711 88.382h.007c20.677-.456 37.549-2.899 50.336-7.33a3.647 3.647 0 012.388 6.887 98.927 98.927 0 01-5.305 1.666h-.006c-10.069 2.876-21.794 5.059-35.724 5.918-.004 0-.337-.321-.341-.321 35.688 18.307 87.435 18.241 146.764-4.549 66.523-25.558 128.428-74.246 171.619-129.935-.65.294-1.283.594-1.898.903" fill="#37B1D9"/><path d="M73.801 182.626c1.884 13.938 5.963 26.988 12.009 38.875l3.451 6.315a116.91 116.91 0 007.154 10.733c12.476.801 23.978 1.077 34.502.845 20.677-.456 37.549-2.899 50.337-7.33a3.649 3.649 0 014.527 2.288 3.644 3.644 0 01-2.14 4.599 98.643 98.643 0 01-5.305 1.666h-.006c-10.069 2.876-21.731 4.934-35.661 5.796-.479.029-1.313.035-1.795.062-5.479.306-11.336.494-17.388.494-6.615 0-13.381-.126-20.663-.496 25.28 28.414 65.053 45.518 114.603 45.518 89.775 0 167.881-34.075 213.213-109.365H73.801z" fill="#1B81A5"/><path d="M93.93 182.626c5.367 24.473 18.264 43.685 36.987 56.768 20.677-.456 37.549-2.899 50.336-7.33a3.646 3.646 0 012.388 6.887 98.643 98.643 0 01-5.305 1.666h-.006c-10.069 2.876-21.978 4.934-35.91 5.796 35.686 18.302 87.284 18.039 146.609-4.748 35.889-13.789 70.43-34.316 101.419-59.039H93.93z" fill="#1D91B4"/><path d="M114.413 102.618h41.032v41.032h-41.032v-41.032zm3.418 3.42h3.239v34.194h-3.239v-34.194zm6.088 0h3.368v34.194h-3.366v-34.194h-.002zm6.215 0h3.369v34.194h-3.369v-34.194zm6.22 0h3.366v34.194h-3.366v-34.194zm6.217 0h3.367v34.194h-3.367v-34.194zm6.216 0h3.24v34.194h-3.24v-34.194zm12.969-50.763h41.034v41.03h-41.036v-41.03h.002zm3.42 3.42h3.237v34.192h-3.237V58.695zm6.088 0h3.366v34.192h-3.364V58.695h-.002zm6.215 0h3.367v34.192h-3.367V58.695zm6.218 0h3.366v34.192h-3.366V58.695zm6.217 0h3.369v34.192h-3.369V58.695zm6.216 0h3.242v34.192h-3.242V58.695z" fill="#23A3C2"/><path d="M161.756 102.618h41.034v41.032h-41.036v-41.032h.002zm3.42 3.42h3.236v34.194h-3.236v-34.194zm6.087 0h3.367v34.194h-3.364v-34.194h-.003zm6.216 0h3.367v34.194h-3.367v-34.194zm6.218 0h3.366v34.194h-3.366v-34.194zm6.217 0h3.369v34.194h-3.369v-34.194zm6.216 0h3.242v34.194h-3.242v-34.194z" fill="#34BBDE"/><path d="M209.101 102.618h41.032v41.032h-41.032v-41.032zm3.418 3.42h3.236v34.194h-3.236v-34.194zm6.087 0h3.367v34.194h-3.367v-34.194zm6.218 0h3.367v34.194h-3.367v-34.194zm6.218 0h3.366v34.194h-3.366v-34.194zm6.215 0h3.371v34.194h-3.371v-34.194zm6.218 0h3.238v34.194h-3.238v-34.194z" fill="#23A3C2"/><path d="M209.101 55.275h41.032v41.03h-41.032v-41.03zm3.418 3.42h3.236v34.192h-3.236V58.695zm6.087 0h3.367v34.192h-3.367V58.695zm6.218 0h3.367v34.192h-3.367V58.695zm6.218 0h3.366v34.192h-3.366V58.695zm6.215 0h3.371v34.192h-3.371V58.695zm6.218 0h3.238v34.192h-3.238V58.695zm12.969 43.923h41.032v41.032h-41.032v-41.032zm3.42 3.42h3.236v34.194h-3.236v-34.194zm6.087 0h3.367v34.194h-3.367v-34.194zm6.216 0h3.366v34.194h-3.366v-34.194zm6.217 0h3.369v34.194h-3.369v-34.194zm6.218 0h3.369v34.194h-3.369v-34.194zm6.218 0h3.238v34.194h-3.238v-34.194z" fill="#34BBDE"/><path d="M256.444 55.275h41.032v41.03h-41.032v-41.03zm3.42 3.42h3.236v34.192h-3.236V58.695zm6.087 0h3.367v34.192h-3.367V58.695zm6.216 0h3.367v34.192h-3.367V58.695zm6.218 0h3.368v34.192h-3.368V58.695zm6.217 0h3.369v34.192h-3.369V58.695zm6.218 0h3.238v34.192h-3.238V58.695z" fill="#23A3C2"/><path d="M256.444 7.93h41.032v41.036h-41.032V7.93zm3.42 3.418h3.236v34.196h-3.236V11.346v.002zm6.087 0h3.367v34.196h-3.367V11.346v.002zm6.216 0h3.367v34.196h-3.367V11.346v.002zm6.218 0h3.368v34.196h-3.368V11.346v.002zm6.217 0h3.369v34.196h-3.369V11.346v.002zm6.218 0h3.238v34.196h-3.238V11.346v.002z" fill="#34BBDE"/><path d="M303.787 102.618h41.032v41.032h-41.032v-41.032zm3.416 3.42h3.24v34.194h-3.238v-34.194h-.002zm6.087 0h3.369v34.194h-3.367v-34.194h-.002zm6.22 0h3.369v34.194h-3.369v-34.194zm6.215 0h3.369v34.194h-3.369v-34.194zm6.22 0h3.367v34.194h-3.367v-34.194zm6.216 0h3.238v34.194h-3.238v-34.194z" fill="#23A3C2"/><path d="M200.221 210.176a11.323 11.323 0 0111.472 11.322 11.31 11.31 0 01-3.372 8.059 11.32 11.32 0 11-8.1-19.381z" fill="#D3ECEC"/><path d="M200.221 213.387c1.035 0 2.023.194 2.934.548a3.305 3.305 0 00-1.535 3.718 3.307 3.307 0 003.187 2.452c1.253 0 2.34-.693 2.903-1.72a8.114 8.114 0 01.378 5.072 8.106 8.106 0 11-7.867-10.07zM0 186.717h526.571c-11.464-2.907-36.274-6.836-32.183-21.864-20.849 24.125-71.126 16.926-83.816 5.032-14.128 20.493-96.387 12.702-102.125-3.263-17.714 20.789-72.604 20.789-90.319 0-5.741 15.965-87.998 23.756-102.129 3.261-12.688 11.896-62.962 19.095-83.812-5.028C36.278 179.881 11.468 183.81 0 186.719" fill="#364548"/><path d="M230.311 291.747c-28.034-13.303-43.42-31.388-51.981-51.128-10.414 2.972-22.93 4.872-37.475 5.688-5.479.306-11.243.464-17.288.464-6.974 0-14.322-.207-22.036-.615 25.709 25.694 57.335 45.475 115.895 45.835 4.323 0 8.613-.082 12.885-.244" fill="#BDD9D7"/><path d="M188.742 258.835c-3.878-5.265-7.64-11.882-10.406-18.22-10.414 2.976-22.934 4.876-37.481 5.694 9.992 5.422 24.28 10.447 47.889 12.526" fill="#D3ECEC"/></g><defs><clipPath id="clip0"><path fill="#fff" d="M0 0h528.127v300H0z"/></clipPath></defs></svg>