<svg width="448" height="448" fill="none" xmlns="http://www.w3.org/2000/svg"><path opacity=".4" d="M194.62 211.73l-95 221.72A23.997 23.997 0 0177.54 448H25.31a24.004 24.004 0 01-20.034-10.787A24 24 0 013.25 414.55l132.88-310.06 58.49 107.24z" fill="#FA7D13"/><path d="M448 376v48c0 6.365-2.529 12.47-7.029 16.971A24.005 24.005 0 01424 448h-81.5a32.005 32.005 0 01-28.1-16.68L131.5 96H24A24 24 0 010 72V24A24 24 0 0124 0h145.5a32.003 32.003 0 0128.1 16.68L380.5 352H424c6.365 0 12.47 2.529 16.971 7.029A24.005 24.005 0 01448 376z" fill="#FA7D13"/></svg>